<?xml version="1.0" ?><!DOCTYPE svg  PUBLIC '-//W3C//DTD SVG 1.1//EN'  'http://www.w3.org/Graphics/SVG/1.1/DTD/svg11.dtd'><svg height="100%" style="fill-rule:evenodd;clip-rule:evenodd;stroke-linejoin:round;stroke-miterlimit:2;" version="1.1" viewBox="0 0 32 32" width="100%" xml:space="preserve" xmlns="http://www.w3.org/2000/svg" xmlns:serif="http://www.serif.com/" xmlns:xlink="http://www.w3.org/1999/xlink"><path d="M27,4c-0,-1.657 -1.343,-3 -3,-3l-16.012,0c-1.657,0 -3,1.343 -3,3c-0,5.154 -0,18.844 -0,23.998c-0,1.657 1.343,3 3,3l16.012,0c1.657,0 3,-1.343 3,-3c0,-5.154 0,-18.844 -0,-23.998Zm-6,-1l-0,1.002c0,0.795 -0.316,1.558 -0.879,2.121c-0.562,0.563 -1.325,0.879 -2.121,0.879l-4,-0c-0.796,-0 -1.559,-0.316 -2.121,-0.879c-0.563,-0.563 -0.879,-1.326 -0.879,-2.121l0,-1.002l-3.012,0c-0.553,0 -1,0.448 -1,1c-0,5.154 -0,18.844 -0,23.998c-0,0.553 0.447,1 1,1c-0,0 16.012,0 16.012,0c0.552,0 1,-0.447 1,-1c0,-5.154 0,-18.844 -0,-23.998c-0,-0.552 -0.448,-1 -1,-1l-3,0Zm-2,0l-6,0l-0,1.002c-0,0.265 0.105,0.519 0.293,0.707c0.187,0.187 0.442,0.293 0.707,0.293c0,-0 4,-0 4,-0c0.265,-0 0.52,-0.106 0.707,-0.293c0.188,-0.188 0.293,-0.442 0.293,-0.707l-0,-1.002Z"/><circle cx="10" cy="10.006" r="1.25"/><circle cx="10" cy="14" r="1.25"/><circle cx="10" cy="18.014" r="1.25"/><circle cx="10" cy="22.028" r="1.25"/><circle cx="10" cy="26.042" r="1.25"/><path d="M14,11l7.988,0c0.552,0 1,-0.448 1,-1c-0,-0.552 -0.448,-1 -1,-1l-7.988,0c-0.552,0 -1,0.448 -1,1c0,0.552 0.448,1 1,1Z"/><path d="M14.006,14.998l7.988,0c0.552,0 1,-0.448 1,-1c-0,-0.552 -0.448,-1 -1,-1l-7.988,0c-0.552,0 -1,0.448 -1,1c0,0.552 0.448,1 1,1Z"/><path d="M14,19l7.988,-0c0.552,-0 1,-0.448 1,-1c-0,-0.552 -0.448,-1 -1,-1l-7.988,-0c-0.552,-0 -1,0.448 -1,1c0,0.552 0.448,1 1,1Z"/><path d="M14.006,23l7.988,-0c0.552,0 1,-0.448 1,-1c-0,-0.552 -0.448,-1 -1,-1l-7.988,-0c-0.552,0 -1,0.448 -1,1c0,0.552 0.448,1 1,1Z"/><path d="M14,26.998l7.988,0c0.552,0 1,-0.448 1,-1c-0,-0.552 -0.448,-1 -1,-1l-7.988,0c-0.552,0 -1,0.448 -1,1c-0,0.552 0.448,1 1,1Z"/><g id="Icon"/></svg>